<?xml version="1.0" encoding="UTF-8" standalone="no"?>
<!DOCTYPE svg PUBLIC "-//W3C//DTD SVG 1.1//EN" "http://www.w3.org/Graphics/SVG/1.1/DTD/svg11.dtd">
<svg width="100%" height="100%" viewBox="0 0 96 96" version="1.1" xmlns="http://www.w3.org/2000/svg" xmlns:xlink="http://www.w3.org/1999/xlink" xml:space="preserve" xmlns:serif="http://www.serif.com/" style="fill-rule:evenodd;clip-rule:evenodd;stroke-linejoin:round;stroke-miterlimit:2;">
    <rect x="0" y="0" width="96" height="96" style="fill:rgb(241,233,211);"/>
    <g transform="matrix(1.50353,0,0,1.50353,29.4164,66.0423)">
        <g>
            <path d="M14.21,-30.86C14.21,-31.34 14.227,-31.727 14.26,-32.02C14.287,-32.307 14.35,-32.6 14.45,-32.9C14.543,-33.207 14.687,-33.433 14.88,-33.58C15.073,-33.72 15.313,-33.79 15.6,-33.79C16.147,-33.79 16.42,-33.52 16.42,-32.98C16.42,-32.82 16.403,-32.69 16.37,-32.59C16.21,-31.79 16.13,-31.053 16.13,-30.38C16.13,-30.22 16.147,-30.03 16.18,-29.81C16.207,-29.583 16.22,-29.423 16.22,-29.33C16.253,-29.363 16.303,-29.38 16.37,-29.38L16.46,-29.42C16.527,-29.453 16.617,-29.48 16.73,-29.5C16.843,-29.513 16.93,-29.537 16.99,-29.57C17.183,-29.63 17.663,-29.677 18.43,-29.71L18.77,-29.71C19.377,-29.71 19.857,-29.693 20.21,-29.66C20.563,-29.633 20.947,-29.58 21.36,-29.5C21.773,-29.42 22.087,-29.26 22.3,-29.02C22.507,-28.78 22.61,-28.483 22.61,-28.13C22.543,-27.683 22.367,-27.33 22.08,-27.07C21.507,-26.53 20.323,-26.243 18.53,-26.21C17.537,-26.21 16.857,-26.257 16.49,-26.35C16.123,-26.45 15.747,-26.69 15.36,-27.07L14.93,-26.78C13.137,-25.567 11.433,-23.8 9.82,-21.48C8.2,-19.16 7.04,-16.783 6.34,-14.35C5.76,-12.53 5.47,-10.787 5.47,-9.12C5.47,-6.147 6.653,-4.113 9.02,-3.02C9.313,-2.86 11.46,-2.11 15.46,-0.77C16.993,-0.163 18.017,0.927 18.53,2.5C18.623,2.88 18.67,3.327 18.67,3.84C18.67,4.673 18.43,5.6 17.95,6.62C17.117,8.193 15.933,9.22 14.4,9.7C14.147,9.76 13.73,9.79 13.15,9.79C12.29,9.79 11.507,9.663 10.8,9.41C9.04,8.863 8.16,8.27 8.16,7.63C8.16,7.377 8.263,7.153 8.47,6.96C8.677,6.767 8.91,6.67 9.17,6.67C9.33,6.67 9.507,6.72 9.7,6.82C10.467,7.3 11.097,7.627 11.59,7.8C12.09,7.973 12.753,8.06 13.58,8.06C14.033,8 14.46,7.737 14.86,7.27C15.26,6.81 15.46,6.26 15.46,5.62C15.46,4.5 14.867,3.65 13.68,3.07C13.52,2.977 12.497,2.61 10.61,1.97C8.53,1.263 7.217,0.767 6.67,0.48C3.63,-0.993 2.11,-3.713 2.11,-7.68C2.11,-9.28 2.333,-10.96 2.78,-12.72C3.52,-15.693 4.993,-18.687 7.2,-21.7C9.407,-24.707 11.693,-26.913 14.06,-28.32L14.5,-28.56C14.307,-29.107 14.21,-29.873 14.21,-30.86Z" style="fill:rgb(61,73,41);fill-rule:nonzero;"/>
        </g>
    </g>
</svg>
